<?xml version="1.0" encoding="UTF-8"?>
<svg width="66px" height="97px" viewBox="0 0 66 97" version="1.1" xmlns="http://www.w3.org/2000/svg" xmlns:xlink="http://www.w3.org/1999/xlink">
    <!-- Generator: Sketch 49.3 (51167) - http://www.bohemiancoding.com/sketch -->
    <title>boy</title>
    <desc>Created with Sketch.</desc>
    <defs>
        <filter x="-7.1%" y="-10.9%" width="114.2%" height="121.7%" filterUnits="objectBoundingBox" id="filter-1">
            <feGaussianBlur stdDeviation="1.26395089" in="SourceGraphic"></feGaussianBlur>
        </filter>
    </defs>
    <g id="Page-1" stroke="none" stroke-width="1" fill="none" fill-rule="evenodd">
        <g id="订房-敬请期待" transform="translate(-416.000000, -1160.000000)">
            <g id="Group" transform="translate(20.000000, 1112.000000)">
                <g id="boy" transform="translate(396.000000, 48.000000)">
                    <path d="M21.8490017,28.0898148 L18.8289207,25.8876447 C18.4613378,27.3557581 17.7161892,28.0898148 16.5934751,28.0898148 C16.5934751,28.0898148 18.8189381,32.5307581 21.8490017,34.4098235 C22.4406395,35.0970727 22.305652,38.0255353 21.4440394,43.1952112 C20.6940358,42.5190538 20.166176,44.4275125 19.8604601,48.9205874 C19.8604601,48.9205874 19.5166136,50.2071277 18.8289207,52.7802083 C23.6587432,51.8021316 27.0525077,52.5568191 29.0102141,55.0442708 C30.9679205,57.5317226 35.2051071,57.6984327 41.7217737,55.544401 L43.7405961,35.8889178 C45.7255883,35.1883584 46.2218364,34.0010899 45.2293403,32.3271123 C45.2293403,32.3271123 47.63682,21.9212095 41.0552662,17.8130208 C41.0552662,17.8130208 40.9100188,16.9041016 39.4801722,16.9041016 C38.5269411,16.9041016 34.712852,16.7568576 28.0379051,16.4623698 C25.918369,15.7196615 24.1932581,18.1781081 22.8625723,23.8377098 C22.8625723,23.8377098 22.8625723,24.2873722 22.8625723,25.186697 C21.7458478,25.0934148 21.1874855,25.327064 21.1874855,25.8876447 C21.1874855,26.4482253 21.4079909,26.7285156 21.8490017,26.7285156 L21.8490017,28.0898148 Z" id="Path-22" fill="#FFFFFF"></path>
                    <path d="M11.2795501,94.7480541 C12.7669633,95.2382849 13.5535952,95.0939525 14.4111871,94.7480541 C14.4111871,94.7480541 8.32294198,93.5763419 2.38759766,89.6866066 C2.38759766,89.6866066 -1.22220775,85.4152018 0.574001736,89.6866066 C3.21890191,92.2222801 9.79213686,94.2578234 11.2795501,94.7480541 Z" id="Path-26" fill="#D8D8D8"></path>
                    <path d="M14.0119647,89.858724 C14.2781129,89.7838542 14.4111871,89.9561933 14.4111871,90.3757415 C14.4111871,90.8433203 14.1709382,92.6922128 14.5026946,93.8958695 C14.6300677,94.3579964 14.4111871,94.7480541 14.4111871,94.7480541 C14.4111871,94.7480541 8.32294198,93.5763419 2.38759766,89.6866066 C2.38759766,89.6866066 -2.13586878,86.9595161 1.67250796,87.9170175 C6.00974272,87.8108688 8.39132306,87.1337686 8.81724899,85.8857169 C9.27717134,84.5962927 9.79959611,84.644348 10.3845233,86.0298828 C10.3845233,86.0298828 11.5936704,87.3061632 14.0119647,89.858724 Z" id="Path-26" fill="#FFFFFF"></path>
                    <path d="M35.4090025,86.5988932 C35.9115468,87.7803385 36.162819,88.5808353 36.162819,89.0003834 C36.162819,89.4679622 36.5983507,90.507979 36.5983507,91.7321325 C36.5983507,92.1805194 35.8544777,92.8816334 35.8544777,92.8816334 C35.8544777,92.8816334 34.2407841,95.296101 29.5348018,94.3703776 C29.5348018,94.3703776 25.8139395,93.9660807 28.2227503,92.1805194 C29.4207779,90.8903188 30.1723189,89.0964751 30.4773734,86.7989883 C31.2002534,85.1164524 31.854157,84.9679519 32.4390842,86.3534867 C33.3306448,86.5798329 34.3206175,86.661635 35.4090025,86.5988932 Z" id="Path-26" fill="#FFFFFF"></path>
                    <path d="M36.5329644,91.7903646 C37.030599,91.4026997 35.647338,93.3027721 35.2862992,93.5183594 C34.3863643,94.2144821 33.5062283,94.7525463 31.4140336,94.7525463 C30.4136068,94.7525463 27.6875145,94.2371094 27.5243815,93.5183594 C33.7219365,94.7525463 33.9260815,93.8211661 36.5329644,91.7903646 Z" id="Path-26" fill="#D8D8D8"></path>
                    <path d="M10.439511,85.963831 C10.3640471,86.6333175 11.2953559,86.4073929 11.2953559,87.1038484 C11.2953559,87.8003038 10.4900897,89.6357784 13.9623843,90.1099537 C13.3910446,90.1099537 14.8158999,86.8090278 15.919647,86.3864294 C16.4553819,86.1046971 18.2298515,81.8807099 21.2430556,73.7144676 C21.9933063,72.8734857 22.3684317,71.6237703 22.3684317,69.9653212 C22.3684317,69.9653212 23.267202,68.8472656 23.267202,67.2796586 C23.267202,66.2345872 25.3272859,62.9892313 29.4474537,57.5435909 C29.91087,61.90068 30.5432147,65.2865693 31.3444878,67.7012587 C31.3444878,67.7012587 29.8194734,68.9693866 31.9710648,69.9653212 C31.9710648,69.9653212 32.9353877,78.4578848 32.4532263,80.1452836 C32.1317853,81.270216 32.1317853,82.1028791 32.4532263,82.6432726 L31.3444878,83.1577112 L31.9710648,84.4854022 L31.3444878,85.5255932 C32.324783,86.5777633 33.2358652,86.9889371 34.0777344,86.7591146 C34.9196036,86.5292921 35.2740982,87.1010754 35.1412182,88.4744647 C35.9371672,88.8515866 36.3351418,89.0401476 36.3351418,89.0401476 C36.3351418,89.0401476 36.5454427,88.8515866 36.9660446,88.4744647 L35.8423322,87.6612124 C35.5630401,85.8110966 35.9376109,84.3099296 36.9660446,83.1577112 C36.9660446,82.5603057 36.9660446,81.3681568 36.9660446,79.5812645 C38.8310233,76.3269242 38.9677855,72.2263889 37.376331,67.2796586 C37.376331,67.2796586 37.9543258,56.5386719 39.3472367,55.3024884 C40.7401476,54.066305 21.9957465,47.1686343 18.9576968,52.8344473 C18.9576968,52.8344473 15.4817419,64.2176505 16.7648437,68.1238571 C16.7648437,68.1238571 15.0744502,69.3141204 15.919647,71.1116609 C15.919647,71.1116609 13.1567853,72.5648003 11.7981481,82.6432726 C11.7981481,82.6432726 10.439511,85.1023293 10.439511,85.963831 Z" id="Path-25" fill="#99ADC5"></path>
                    <path d="M28.3328089,52.5963614 C27.7988486,52.9019411 27.7988486,53.1024812 28.3328089,53.1979818 C28.9071434,53.1979818 29.5692696,52.5112871 30.3191876,51.1378979 C29.6745865,52.9642771 28.9777456,53.9979794 28.2286649,54.2390046 C27.8671118,54.3553385 27.0369987,54.6323252 28.2286649,54.9824836 C30.3909795,55.6178566 33.8566238,56.2018496 34.619958,51.4084274 C34.619958,51.4084274 34.838051,51.1967677 35.2742368,50.7734484 L32.8148474,47.9981916 L32.0357856,48.6899884 C31.064253,48.6309799 30.3842134,49.0932593 29.995667,50.0768265 C29.995667,50.0768265 29.5295054,50.5567142 28.5971824,51.5164894 L28.3328089,52.5963614 Z" id="Path-24" fill="#FDEDDC"></path>
                    <path d="M14.6851273,21.5222367 C15.883044,20.811251 17.0645448,21.3971209 18.2296296,23.2798466 C18.4364921,23.8409819 18.4966652,24.8769579 18.410149,26.3877749 L17.3375145,27.6923394 C15.6717448,27.4370057 14.4493152,26.8742067 13.6702257,26.0039424 C13.6702257,26.0039424 13.6702257,24.9624204 13.6702257,22.8793764 C12.7136671,22.639904 12.2353877,22.1037254 12.2353877,21.2708406 C12.2353877,20.0215133 13.7086589,21.9741175 14.6851273,21.9741175 C15.3361063,21.9741175 15.3361063,21.8234905 14.6851273,21.5222367 Z" id="Path-27" fill="#FDEDDC"></path>
                    <path d="M18.1000217,25.3963325 C16.4471185,23.582487 14.8561077,21.8666377 13.3269893,20.2487847 C12.5883849,19.6559269 11.9580367,19.359498 11.4359447,19.359498 C10.9138527,19.359498 11.3262466,19.9431496 12.6731264,21.1104528 C12.8348452,21.2234785 12.9157046,21.5409819 12.9157046,22.062963 C12.9157046,22.062963 13.3610966,22.5087987 14.2518808,23.4004702 L15.620667,23.5881438 C16.8155888,25.0222053 17.4716146,25.8233676 17.5887442,25.9916305 C17.5887442,25.9916305 18.6241102,25.9916305 18.1000217,25.3963325 Z" id="Path-28" fill="#4A4A4A"></path>
                    <path d="M18.4672996,25.5409975 C18.7118188,25.4012406 18.8340784,25.5024812 18.8340784,25.8447193 C18.8340784,26.3580765 18.5389251,28.334639 16.6245877,28.1490451 C16.2217882,27.9909867 16.2163667,27.7696597 16.3846716,27.5314525 C17.3530985,27.6413725 18.0473078,26.9778875 18.4672996,25.5409975 Z" id="Path-29" fill="#4A4A4A"></path>
                    <path d="M38.8833767,35.4142433 L38.8833767,38.194741 C37.7088638,39.0549117 36.6376712,40.8980951 35.6697989,43.7242911 C35.6697989,43.7242911 34.9013021,44.939511 33.3643084,47.3699508 L34.6557292,48.7568721 L35.8800998,48.7568721 C38.8562572,45.4917728 40.9031419,42.5958647 42.0207538,40.0691479 C43.1383656,37.542431 43.748083,35.4509018 43.849906,33.7945602 L40.7522931,33.7945602 L38.8833767,35.4142433 Z" id="Path-23" fill="#FDEDDC"></path>
                    <path d="M33.3643084,47.3699508 C32.3770255,47.2110605 31.9143302,47.545257 31.9762225,48.3725405 C33.1625548,48.9705435 33.4132927,48.8934278 33.7903176,50.0936306 C34.0121817,50.7999023 35.1244973,51.1475477 35.74966,50.7999023 C36.3223307,50.2896231 36.4337203,49.5058196 35.9461516,48.8787435 C35.6776741,48.6126507 35.2225767,48.4796043 34.5808594,48.4796043 L33.3643084,47.3699508 Z" id="Path-23" fill="#FFFFFF"></path>
                    <path d="M21.8490017,28.0898148 L18.8289207,25.8876447 C18.4613378,27.3557581 17.7161892,28.0898148 16.5934751,28.0898148 C16.5934751,28.0898148 18.8189381,32.5307581 21.8490017,34.4098235 C22.5886321,34.9024667 23.2219473,33.327955 23.2219473,29.637623 C23.2219473,29.28217 22.7642988,28.7662339 21.8490017,28.0898148 Z" id="Path-22" fill="#FDEDDC"></path>
                    <path d="M30.7092593,0.536067708 C29.1885706,0.776649306 24.7526186,1.42418981 25.2840278,8.32485532 C25.2840278,8.96618441 25.4751399,9.77976948 25.857364,10.7656105 L25.2840278,13.2725839 L26.3611545,13.6645689 L26.3611545,14.3796586 L27.1547743,15.0744502 L27.1547743,15.7130064 L27.5464265,16.2392578 C27.5968943,17.5206959 28.8406202,17.9062476 31.2776042,17.3959129 C31.2776042,17.3959129 31.4206887,21.5463614 39.4741826,16.8926215 C39.4741826,16.8926215 33.3145616,12.6483362 37.8691406,8.05698785 C37.6904514,8.32485532 39.8986111,3.54633247 35.3039352,2.89063947 C35.3039352,2.89063947 33.643656,0.13010706 30.7092593,0.536067708 Z" id="Path-21" fill="#FDEDDC"></path>
                    <path d="M30.7092593,0.195326968 C29.1885706,0.435908565 24.7526186,1.08344907 25.2840278,7.98411458 C25.2840278,8.25118289 25.9029623,8.70318654 26.8946285,9.11861797 C27.5814778,9.40635472 27.6662163,9.27318021 28.6288773,9.45222801 C28.9894929,9.51929983 30.7092593,9.68515625 30.9654803,11.9255932 C30.9654803,11.9255932 32.0281322,11.9255932 32.0281322,11.9255932 C32.8154297,10.1305483 32.5122902,9.11861797 35.5014251,9.68515625 C35.5014251,10.9814019 35.1638782,11.8663374 35.1361683,12.6874199 C35.1361683,12.6874199 36.28057,12.5122396 36.28057,12.5122396 C36.28057,11.1875434 36.3461227,8.92231626 38.1652922,8.92231626 C37.986603,9.19018374 39.8986111,3.20559172 35.3039352,2.54989873 C35.3039352,2.54989873 33.643656,-0.210633681 30.7092593,0.195326968 Z" id="Path-21" fill="#EBC1B7"></path>
                    <polygon id="Path-2" fill-opacity="0.140000001" fill="#A2A7AA" style="mix-blend-mode: darken;" filter="url(#filter-1)" points="48.7890625 64.140625 63.9648437 59.8085938 63.9648438 68.7578125 31.5390625 94.6875 37.2285156 77.1914062 16.5351562 94.6875 10.4921875 87.3984375"></polygon>
                </g>
            </g>
        </g>
    </g>
</svg>