<?xml version="1.0" encoding="UTF-8"?>
<svg width="92px" height="98px" viewBox="0 0 92 98" version="1.1" xmlns="http://www.w3.org/2000/svg" xmlns:xlink="http://www.w3.org/1999/xlink">
    <!-- Generator: Sketch 49.3 (51167) - http://www.bohemiancoding.com/sketch -->
    <title>couple</title>
    <desc>Created with Sketch.</desc>
    <defs>
        <filter x="-5.7%" y="-8.8%" width="111.5%" height="117.7%" filterUnits="objectBoundingBox" id="filter-1">
            <feGaussianBlur stdDeviation="1.26395089" in="SourceGraphic"></feGaussianBlur>
        </filter>
        <filter x="-7.4%" y="-10.8%" width="114.9%" height="121.6%" filterUnits="objectBoundingBox" id="filter-2">
            <feGaussianBlur stdDeviation="1.26395089" in="SourceGraphic"></feGaussianBlur>
        </filter>
    </defs>
    <g id="Page-1" stroke="none" stroke-width="1" fill="none" fill-rule="evenodd">
        <g id="订房-敬请期待" transform="translate(-148.000000, -1158.000000)">
            <g id="Group" transform="translate(20.000000, 1112.000000)">
                <g id="couple" transform="translate(128.000000, 46.000000)">
                    <polygon id="Path-2" fill-opacity="0.140000001" fill="#A2A7AA" style="mix-blend-mode: darken;" filter="url(#filter-1)" points="72.9453125 53.6992188 72.0703125 64.9375 27.7363281 93.8789063 19.296875 96.5898437 39.5351562 78.2324219 39 69.9375 7 96.5898437"></polygon>
                    <path d="M86.5039062,60.7773438 C88.840332,60.686849 90.0085449,64.0491536 90.0085449,70.8642578 C74.1912258,84.2496745 60.8706692,92.5878906 50.046875,95.8789063 L72.0443444,78.5585937 L39,95.8789063 L86.5039062,60.7773438 Z" id="Path-2" fill-opacity="0.140000001" fill="#A2A7AA" style="mix-blend-mode: darken;" filter="url(#filter-2)"></path>
                    <g id="boy">
                        <path d="M4.90906904,96.6058056 L8.06943696,96.6058056 L8.06943696,93.7783976 C8.69697699,92.8215394 8.79987685,92.1894294 8.37813655,91.8820677 C7.95639624,91.574706 6.80004041,91.574706 4.90906904,91.8820677 L4.90906904,94.128676 L3.56659868,95.4232224 L4.90906904,96.6058056 Z" id="Path-12" fill="#FDEDDC"></path>
                        <path d="M5.92583898,63.3423933 L4.90220905,71.6000915 C3.75927494,74.2380464 3.75927494,79.8055301 4.90220905,88.3025428 C4.91413947,88.3025428 4.91413947,89.5566705 4.90220905,92.064926 C7.20816015,92.064926 8.3611357,92.064926 8.3611357,92.064926 C8.3611357,92.064926 7.54718288,89.5639648 8.04289178,88.3025428 C8.37336438,87.4615947 9.01810409,82.4524781 9.97711091,73.2751928 L12.3745286,63.8214219 L5.92583898,63.3423933 Z" id="Path-7" fill="#FDEDDC"></path>
                        <path d="M16.5582281,96.7296096 C17.9351973,97.0545577 18.884461,97.0545577 19.4060191,96.7296096 C19.9275772,96.4046615 21.3240327,96.4046615 23.5953856,96.7296096 L24.0248807,96.2952464 C22.1822275,95.906148 20.7951175,94.9828638 19.8635506,93.5253937 C19.5585296,92.0577315 19.4060191,91.1295511 19.4060191,90.7408525 L17.4094635,90.7408525 C16.274483,91.3719632 15.9907379,92.3001436 16.5582281,93.5253937 C16.2625526,94.3543511 16.2625526,95.422423 16.5582281,96.7296096 Z" id="Path-13" fill="#FDEDDC"></path>
                        <path d="M15.6527094,63.5060664 C15.7749962,68.2256076 16.1298267,71.1961047 16.717201,72.4175577 C16.717201,72.4175577 16.877168,78.5871747 17.1971021,90.9264086 L19.4268973,90.9264086 C21.8732297,82.5580962 22.7669175,76.1168898 22.1079607,71.6027894 C22.1079607,70.0200164 22.0763451,64.0426504 22.60874,62.873257 C22.96367,62.0936614 20.6449931,62.3045979 15.6527094,63.5060664 Z" id="Path-8" fill="#FDEDDC"></path>
                        <path d="M3.63221598,56.1194929 C0.494515856,55.3285061 -0.551384185,52.3779936 0.494515856,47.2679552 C0.494515856,47.2679552 1.26561859,46.9581953 2.80782405,46.3386756 L4.97796721,50.2494437 L4.97796721,53.063662 L4.97796721,54.3778432 L4.10794143,53.9662622 L3.63221598,51.5989975 C2.90108015,52.6519811 3.0596553,53.9695597 4.10794143,55.5517331 C4.10794143,55.5517331 3.94936628,55.7409864 3.63221598,56.1194929 Z" id="Path-10" fill="#FDEDDC"></path>
                        <path d="M27.7385218,48.9928179 L26.8321082,50.4835622 C24.7347406,52.2879634 24.8858095,54.4507866 27.285315,56.972032 C27.285315,56.972032 30.0067926,59.6300713 30.9952278,52.982425 C30.9952278,53.1573654 30.5022033,51.9631912 29.5161542,49.3999023 L27.7385218,48.9928179 Z" id="Path-11" fill="#FDEDDC"></path>
                        <path d="M11.0231104,13.7791176 L5.15871305,16.612521 C3.26495792,16.6992538 1.97527966,21.7547345 1.28967826,31.7789631 C0.604076868,41.8031918 0.390323532,46.9557972 0.648418257,47.2367793 L3.05538023,46.4094207 L4.30747768,37.6753919 L6.44302263,30.5079485 L5.7828239,42.3787455 C12.6594173,40.1464761 18.7615776,40.4396488 24.089305,43.2582637 C24.089305,43.2582637 23.739346,39.7315978 23.0394281,32.6782659 L24.089305,39.2611625 L27.6547106,49.1025329 L29.602948,49.7668179 L29.602948,37.6753919 C28.9694427,25.7558326 27.8921259,19.2654643 26.3709975,18.204287 C24.8498692,17.1431097 22.6053597,15.6680532 19.6374692,13.7791176 L11.0231104,13.7791176 Z" id="Path-5" fill="#FFFFFF"></path>
                        <path d="M4.13329357,63.8936659 L13.7438424,64.6814552 L14.8820043,60.021268 L15.6962554,63.8936659 L26.4222983,63.1628325 C26.2043694,50.7192795 25.4593147,43.8747857 24.1871344,42.6293513 C22.2788639,40.7611996 8.10671952,40.2821709 6.65717365,42.6293513 C5.69080973,44.1941382 4.84951637,51.282243 4.13329357,63.8936659 Z" id="Path-6" fill="#99ADC5"></path>
                        <path d="M11.1477833,6.72828385 C9.70446241,7.05603956 11.7031442,9.71966475 11.7031442,9.71966475 C11.7031442,9.71966475 11.9687949,9.71966475 12.5000962,9.71966475 L12.5000962,12.3618164 L11.3977255,13.6382269 L19.6744535,13.6382269 L19.6744535,11.4721062 L19.6744535,9.71966475 L20.5519358,9.71966475 C21.2339581,8.30456182 21.4375706,7.35859519 21.1627732,6.88176486 C15.5954433,4.67997182 12.5911041,6.40052813 11.1477833,6.72828385 Z" id="Path-4" fill="#FDEDDC"></path>
                        <path d="M14.701855,0.374709504 C17.7810961,-0.273987589 20.3521013,0.374709504 20.3521013,3.96352724 C20.3521013,7.55234499 20.3521013,11.962526 17.8562577,11.962526 C15.3604141,11.962526 13.4873384,12.3959899 12.5549761,10.0596012 C11.6226139,7.72321252 11.6226139,4.94436684 11.6226139,3.96352724 C11.6226139,2.98268765 11.6226139,1.0234066 14.701855,0.374709504 Z" id="Path-3" fill="#455055"></path>
                    </g>
                    <g id="girl-" transform="translate(27.000000, 9.000000)">
                        <path d="M0,43.8284729 L0.198943382,47.0163219 L2.36830285,48.6032313 L3.71113353,46.1870376 C3.94390274,44.6146612 4.06028734,43.8284729 4.06028734,43.8284729 C10.7818696,34.6690833 10.9598637,24.028538 11.2932685,24.028538 C13.3727394,27.2044689 13.559351,33.2220223 11.2932685,39.0721196 C9.7825468,42.9721845 9.66626125,47.8746721 10.9444118,53.7795823 L12.6878036,64.3305161 L11.2932685,66.5699004 C11.0606974,69.4501432 10.9444118,70.6827802 10.9444118,70.2678112 C12.4771227,69.1130187 14.5657063,68.9930337 17.2101626,69.9078563 L24.957217,70.8902647 L24.957217,72 L27.7724367,72 C28.0206578,59.9677094 28.3003771,53.326194 28.6115945,52.0754537 C28.9228118,50.8247134 29.1846029,46.4902687 29.3969677,39.0721196 L26.3024249,31.7289597 C26.7245791,25.8217288 26.9356562,22.8681133 26.9356562,22.8681133 C27.3032334,26.2507241 36.7809021,38.1817365 38.186729,40.3692246 C40.1066293,41.6479245 39.8222546,42.749815 39.8222546,42.749815 C39.1413799,44.8926481 39.4818173,46.038389 40.8435667,46.1870376 L41.1835087,47.2626783 L39.1373189,49.462537 L39.8222546,50.4579194 L42.1970948,48.6032313 L43,46.1870376 L41.6524149,41.2252113 C40.432308,39.1962281 39.8222546,38.1817365 39.8222546,38.1817365 C37.1484793,31.0203533 32.2766694,26.5783948 30.6646189,20.6139446 C28.3343515,13.605976 26.1487972,15.512119 23.0316709,13.8837228 C19.9145446,12.2553265 15.5672082,13.099546 13.3727394,14.6220377 C11.1782706,16.1445294 7.53964217,14.6220377 7.53964217,21.5082501 C7.01922966,27.2126154 5.04653541,34.1244742 1.62155943,42.2438264 L0,43.8284729 Z" id="Path-14" fill="#FDEDDC"></path>
                        <path d="M11.7135129,25.073403 C13.2503361,28.7339002 13.4337502,33.2220223 11.2064955,39.0721196 C9.72165908,42.9721845 9.60736601,47.8746721 10.8636163,53.7795823 L12.5771363,64.3305161 L11.2064955,66.5699004 C10.9779094,69.4501432 10.8636163,70.6827802 10.8636163,70.2678112 C12.3700653,69.1130187 14.4228624,68.9930337 17.0220077,69.9078563 L24.6363215,70.8902647 L27.4033043,72 C27.6472723,59.9677094 27.9221988,53.326194 28.2280836,52.0754537 C28.5339685,50.8247134 28.791274,46.4902687 29,39.0721196 L25.9584801,31.7289597 C26.373401,25.8217288 26.5808614,22.8681133 26.5808614,22.8681133 C26.9421405,26.2507241 18.7510069,25.815942 22.7437683,13.8837228 C19.6800519,12.2553265 15.4072042,13.099546 13.2503361,14.6220377 C15.6496146,24.316683 11.3858208,25.073403 11.7135129,25.073403 Z" id="Path-14" fill="#FFFFFF"></path>
                        <path d="M16.8435028,72 L18.935346,72 L28,71.5561007 L25.2259325,70.5742569 C16.5352396,68.7443486 11.8402739,68.5097474 11.1410355,69.8704535 C10.441797,71.2311596 12.3426195,71.9410084 16.8435028,72 Z" id="Path-16" fill="#455055"></path>
                        <polygon id="Path-17" fill-opacity="0.469999999" fill="#FFFFFF" points="17 71 19.5696701 71 20 69.4297292 17.2832694 69"></polygon>
                        <path d="M19,69.4445927 L19.3567849,83.4866169 L19,84.2232869 L19.1783924,86.6057717 C19.5143917,87.1314094 20.7765522,87.1314094 22.9648737,86.6057717 C22.9648737,86.6057717 22.266202,86.2404613 22.0319803,85.2616773 C22.467863,80.4221997 25.3479449,72.0306835 24.96505,70.156771 C24.7097868,68.907496 22.7214368,68.6701032 19,69.4445927 Z" id="Path-19" fill="#FDEDDC"></path>
                        <path d="M10.6701952,80.2632391 C10.2642334,80.860382 10.1289128,81.7532494 10.2642334,82.9418414 C10.1289128,83.2159597 9.75423115,84.5419159 9.14018842,86.9197099 C8.85264429,88.1093186 9.00744212,88.7780922 9.60458191,88.9260307 C10.2017217,89.0739693 11.6148651,89 13.8440122,88.704123 C14.0519959,88.204894 14.0519959,87.6681975 13.8440122,87.0940333 C13.6360284,86.5198692 13.6360284,85.190151 13.8440122,83.1048788 L13.6752743,80 L10.6701952,80.2632391 Z" id="Path-20" fill="#FDEDDC"></path>
                        <path d="M11,79.8397173 L14.3901948,81 C14.5611787,77.3419319 15.212626,75.0457814 16.3445369,74.1115484 C16.6666742,73.3987905 17.01207,72.456701 17.3807242,71.2852799 L18,68.9733665 L15.6160888,68 L11.7983816,68.2434535 L11.1680304,69.3110986 L11,79.8397173 Z" id="Path-18" fill="#FDEDDC"></path>
                        <path d="M15.7184684,0.847848252 C17.9628856,-0.138499381 21.8328676,-1.74497647 22.8843994,5.96696805 C22.8843994,5.96696805 20.6531982,12.8604149 22.8843994,14.1897869 C24.3718669,15.0760349 24.3718669,17.6794393 22.8843994,22 L14.1767963,22 C13,18.2898029 12.7058009,15.6863986 13.2941991,14.1897869 C13.8825972,12.6931753 13.9425479,9.95223568 13.4740512,5.96696805 C13.4740512,3.21178661 14.2221903,1.50541334 15.7184684,0.847848252 Z" id="Path-9" fill="#EBC1B7"></path>
                        <path d="M12.9733186,24.2751029 L23.6456883,23.969643 C25.3861954,24.951336 26.5042993,24.6281217 27,23 C27,23.1120876 26.9200341,24.1130323 26.7601022,26.0028343 C24.5338289,26.6676114 21.8176542,27 18.6115779,27 C15.4055017,27 13.4202518,26.8158494 12.6558284,26.4475481 L12,24.8978591 L12.9733186,24.2751029 Z" id="Path-15" fill="#99ADC5"></path>
                        <path d="M13,29.3416803 C17.6738398,29.4265874 22.0071731,29.312694 26,29 C26,29.5295386 25.9636325,30.2405176 25.8908974,31.132937 C24.0645339,31.710979 21.5849413,32 18.4521196,32 C15.319298,32 13.5019248,31.9119628 13,31.7358883 L13,29.3416803 Z" id="Path-15" fill="#99ADC5"></path>
                        <path d="M11.9499042,35.0978992 C17.037661,35.1185763 21.7454224,34.4192766 26.0731886,33 C26.0731886,33 26.3821257,33.6992997 27,35.0978992 C22.7090379,36.3438557 19.5881785,37.0377334 17.6374219,37.1795324 C15.6866653,37.3213314 13.4741913,37.5948206 11,38 L11.9499042,35.0978992 Z" id="Path-15" fill="#99ADC5"></path>
                        <path d="M10.4449757,41.5290153 C14.9284765,41.0584735 17.9468179,40.6318837 19.5,40.2492461 C22.214505,39 26.0808019,39.836869 29,39 C29,39.3945981 29,40.3681657 29,41.9207028 C24.1981507,42.1280189 19.9753764,42.6111708 16.3316769,43.3701586 C10.8661277,44.5086404 10,45 10,45 C10,43.9134391 10.1483252,42.7564442 10.4449757,41.5290153 Z" id="Path-15" fill="#99ADC5"></path>
                        <path d="M10,47.819884 C11.7557257,47.1913846 15.0134033,46.4551983 19.7730328,45.611325 C29.3613277,44.0165976 26.5670009,46.079059 29,45.7943032 C29,46.1912835 28.9412355,47.1177291 28.8237065,48.57364 C23.9128695,48.0965672 20.4739107,48.0965672 18.5068303,48.57364 C15.5562096,49.2892492 10.7317664,50.7525996 10.2807364,51 C10.0935788,50.0618412 10,49.0018026 10,47.819884 Z" id="Path-15" fill="#99ADC5"></path>
                        <path d="M11,53.8986732 C14.3284642,52.4718979 17.3628671,51.5650545 20.1032086,51.1781431 C24.2137208,50.5977761 29,51.6212463 29,51.6212463 C29,51.6212463 28.8840981,52.7388088 28.6522944,54.9739337 C24.6917846,54.1570973 21.708306,53.9869934 19.7018587,54.4636218 C16.6921876,55.1785645 11.9206417,56.75283 11.4605853,57 C11.2696822,56.062715 11.1161537,55.0289395 11,53.8986732 Z" id="Path-15" fill="#99ADC5"></path>
                        <path d="M12,59.3228451 C15.2377346,58.515801 18.2791251,57.7415193 21.1241716,57 C24.5266914,57 28,57.8221964 28,57.8221964 C28,57.8221964 27.9642658,58.7913338 27.8927973,60.7296086 C24.7278907,59.8641513 22.2262035,59.5577901 20.3877358,59.8105251 C17.4867089,60.4276843 12.8874081,61.7866357 12.4439589,62 C12.2599471,61.1909085 12.1119608,60.2985236 12,59.3228451 Z" id="Path-15" fill="#99ADC5"></path>
                        <path d="M11.1308697,68.7743867 C11.5903918,68.2581289 11.9800894,68 12.2999627,68 C15.3234789,68 17.9149573,68.0405997 20.9060097,68.7743867 C22.033296,68.960012 27.1187757,69.0552198 28,70.0902303 C28,70.0902303 27.9720045,70.7268202 27.9160134,72 C27.0349384,71.6574914 26.1092447,71.301535 25.1389324,70.9321308 C23.3432624,70.678393 18.7369168,70.0902303 17.2918253,70 C13.2666667,68.5100204 11.4545726,70.0240639 11,70.2580416 C11,70.2580416 11.0436232,69.76349 11.1308697,68.7743867 Z" id="Path-15" fill="#99ADC5"></path>
                        <path d="M12.177093,63.8611149 C13.3544381,63.0257956 13.9431106,62.6081359 13.9431106,62.6081359 C14.5746734,62.6772596 16.2628052,62.7901657 17.3084377,62 C17.3084377,62 25.9616725,62.0601234 28,63.2774962 C28,63.8391545 27.9571379,64.7466557 27.8714138,66 C23.1096913,64.95649 18.9790495,64.434735 15.4794885,64.434735 C14.9957019,64.434735 14.5301343,64.1687885 14.2836371,64.434735 C13.4562985,65.3273524 11.2991079,65.3862733 11,65.5253048 C11.4329572,64.9105262 11.8253215,64.3557963 12.177093,63.8611149 Z" id="Path-15" fill="#99ADC5"></path>
                    </g>
                </g>
            </g>
        </g>
    </g>
</svg>