<?xml version="1.0" encoding="UTF-8"?>
<svg width="65px" height="96px" viewBox="0 0 65 96" version="1.1" xmlns="http://www.w3.org/2000/svg" xmlns:xlink="http://www.w3.org/1999/xlink">
    <!-- Generator: Sketch 49.3 (51167) - http://www.bohemiancoding.com/sketch -->
    <title>girl</title>
    <desc>Created with Sketch.</desc>
    <defs>
        <filter x="-6.3%" y="-9.5%" width="112.5%" height="118.9%" filterUnits="objectBoundingBox" id="filter-1">
            <feGaussianBlur stdDeviation="1.26395089" in="SourceGraphic"></feGaussianBlur>
        </filter>
    </defs>
    <g id="Page-1" stroke="none" stroke-width="1" fill="none" fill-rule="evenodd">
        <g id="订房-敬请期待" transform="translate(-661.000000, -1160.000000)">
            <g id="Group" transform="translate(20.000000, 1112.000000)">
                <g id="girl" transform="translate(641.000000, 48.000000)">
                    <polygon id="Path-2" fill-opacity="0.140000001" fill="#A2A7AA" style="mix-blend-mode: darken;" filter="url(#filter-1)" points="41.7322266 71.0542969 49.5 59.2945313 62.5253906 54.3375 62.5253906 62.1676758 44.3856445 78.9969727 33.8185547 94.3910156 40.5079102 77.3920898 36.130957 77.3920898 10.1003906 94.3910156 11.8520508 90.4517578 1.87382812 94.3910156"></polygon>
                    <path d="M13.5721861,29.7004737 C13.0896388,31.0588288 12.3636405,32.2757137 11.3941913,33.3511285 C11.0777793,33.9184186 11.0552345,34.9902394 10.948763,35.1742115 C9.46379485,37.7400897 6.00041688,42.5326731 5.55852141,42.9138383 C5.37511022,43.072043 3.91895978,45.494958 1.94594907,46.5254774 C1.3314319,46.8464447 0.0981602411,46.4463434 0.0883391204,45.6567057 C0.0794462946,44.9417048 1.27376456,43.8436452 1.16707176,43.8407769 C0.834183536,43.8318275 3.16030093,42.9138383 3.91895978,42.4360605 C3.91895978,41.9645038 5.75694436,38.7725341 6.11997251,37.7400897 C6.83023788,35.72011 8.64348814,34.1354526 8.5760489,34.0422888 C8.5760489,31.3065755 10.0333333,29.0623264 10.0333333,29.0623264 C9.81181269,28.2862695 12.0604511,23.5684633 12.3481916,22.2617694 C12.5315757,21.4289809 12.9395739,23.908549 13.5721861,29.7004737 Z" id="Path-32" fill="#FDEDDC"></path>
                    <polygon id="Path-36" fill="#EBC1B7" points="9.71014902 94.342759 10.2625796 91.1068721 9.3151114 91.1068721 9.3151114 94.342759"></polygon>
                    <polygon id="Path-38" fill="#EBC1B7" points="37.8287399 86.7191551 38.0008313 86.5760474 37.0958984 83.6117332 36.5179615 84.8469256"></polygon>
                    <path d="M34.2018591,86.5207031 C34.6325641,89.3311728 34.3776042,91.340162 33.4369792,92.5476707 C32.4963542,93.7551794 32.9666667,93.939634 34.8479167,93.1010344 L37.0974537,91.4048611 L36.6000796,87.4302228 C36.3186801,85.8260176 36.4844715,84.5994309 37.0974537,83.750463 C37.0974537,83.750463 36.0408058,81.6788484 35.4131004,82.6303602 C34.9946301,83.2647015 34.590883,84.5614824 34.2018591,86.5207031 Z" id="Path-37" fill="#FFFFFF"></path>
                    <path d="M36.7376709,91.2071533 C36.0193052,92.2357178 33.9775391,93.4125977 33.2550049,93.6010742 C34.1668701,93.6010742 35.4476864,92.8690032 37.0974537,91.4048611 L36.7376709,88.5614014 L36.4354248,85.5402832 C36.4354248,85.3859807 36.4354248,85.5902857 36.4354248,86.1531982 C36.4354248,87.8081556 36.7376709,90.6156914 36.7376709,91.2071533 Z" id="Path-37" fill="#99ADC5"></path>
                    <path d="M0.549631076,94.84511 C0.549631076,94.84511 3.03712384,95.4174479 5.52368345,94.84511 C6.4047936,94.5471209 6.84534867,93.8157311 6.84534867,92.6509404 L9.99414062,91.5473235 C11.0179205,90.4293981 11.135706,89.2513358 10.3474971,88.0131366 C9.55928819,86.7749373 8.01202757,87.7472897 5.70571522,90.9301939 C4.33288983,92.73845 2.61419512,94.0434221 0.549631076,94.84511 Z" id="Path-35" fill="#FFFFFF"></path>
                    <path d="M0.549631076,94.84511 C0.549631076,94.84511 3.03712384,95.4174479 5.52368345,94.84511 C6.4047936,94.5471209 6.87789683,93.8157311 6.94299316,92.6509404 C8.24043783,92.1580609 9.19035482,91.8299017 9.79274414,91.6664628 C10.1667662,91.564984 10.4737022,90.9435251 10.5031738,90.8067627 C10.4710026,90.8067627 8.22412109,92.0058594 6.71789551,92.6509404 C6.71789551,93.4144899 6.31982482,94.0593262 5.52368345,94.5854492 C4.21655334,94.7585564 2.55853588,94.84511 0.549631076,94.84511 Z" id="Path-35" fill="#99ADC5"></path>
                    <path d="M21.9059245,63.1665148 L32.9971499,82.4515046 C33.7888841,84.0227382 34.1847512,85.1909505 34.1847512,85.9561415 C34.1847512,87.103928 35.0149523,96.8977503 35.3847946,84.0011719 C35.3847946,84.0011719 35.2615138,83.263872 35.0149523,81.7892723 L32.6285518,74.151671 L30.7115307,67.9694878 L26.1129196,60.7300347 L21.9059245,63.1665148 Z" id="Path-34" fill="#FDEDDC"></path>
                    <path d="M10.4504557,63.2984013 L8.26064091,84.1436343 C8.09350164,85.7022184 7.73267988,87.1386622 7.17817564,88.4529659 C6.62367139,89.7672695 5.42559799,91.3624542 3.58395544,93.23852 C6.92591146,91.6618948 9.0975815,89.9188561 10.0989656,88.0094039 C10.0989656,88.0094039 11.4071518,83.4518519 14.0235243,74.3367477 C14.9728588,70.8682967 15.447526,67.8221523 15.447526,65.1983145 C15.447526,62.5744768 13.7818359,61.9411724 10.4504557,63.2984013 Z" id="Path-33" fill="#FDEDDC"></path>
                    <path d="M16.8534867,11.9220486 L24.555787,11.9220486 C27.1914448,18.6084491 28.8993345,22.7347777 29.679456,24.3010344 C30.8496383,26.6504196 26.5602141,27.2967882 26.5602141,27.2967882 C25.9974151,25.3251254 25.6683208,24.8108507 25.5729311,25.7539641 C24.1943432,29.6429591 22.8796248,33.2849778 21.628776,36.6800203 C22.5351852,37.7102286 24.3857804,38.314135 24.555787,40.7890336 C25.3433738,52.254456 29.2626886,57.0884544 28.7830006,57.8950955 C20.8368488,71.2573052 5.24841255,62.5356447 5.83411458,61.4989583 C9.9344184,54.2414641 11.807581,38.586285 13.5625434,36.6800203 C14.1482099,36.0438611 15.254673,32.8322917 13.5625434,29.7485098 C11.8625338,28.1696036 11.57989,26.3537785 12.7146123,24.3010344 L11.807581,21.1130498 L16.8534867,11.9220486 Z" id="Path-32" fill="#FFFFFF"></path>
                    <path d="M31.0449797,48.626331 C29.7735658,48.4183403 28.6679109,50.6855035 28.6679109,53.3680266 C28.6679109,55.1563754 28.6679109,56.5548708 28.6679109,57.5635127 L34.5318866,54.3273148 C33.9487654,50.526659 32.7864632,48.626331 31.0449797,48.626331 Z" id="Path-39" stroke="#F5A623"></path>
                    <polygon id="Path-40" fill="#99ADC5" points="26.1707755 58.2608941 26.1707755 81.9594184 28.3929398 80.91739 29.3379196 82.7557147 38.6365451 73.0925347 36.2476562 52.0516493"></polygon>
                    <polygon id="Path-41" fill="#E0E4E7" points="28.3932509 80.7432002 26.4821398 58.6242043 29.352228 82.7684679"></polygon>
                    <path d="M30.2642361,29.7485098 C31.0638503,32.3879003 31.4636574,34.920081 31.4636574,37.3450521 C32.2643388,41.1872391 32.5209708,43.4376348 32.8876919,44.5792173 C33.280925,45.80333 34.0579239,48.3134115 33.2201751,48.3134115 C33.0214631,48.3134115 32.8973204,49.1538599 32.5271484,49.3968099 C31.7958623,49.876765 30.991478,49.2880384 30.8266204,48.9190321 C30.8135447,48.8897644 31.4228513,49.4109467 31.4636574,49.0649161 C31.5611354,48.2383149 31.1591159,46.3398693 31.0891493,46.8408854 C30.7099754,49.5560692 30.3143547,49.2387019 30.2642361,49.0649161 C29.7354515,47.231359 30.4410588,43.9907992 30.2642361,43.7465278 C28.7830006,38.586285 27.3994358,37.3450521 27.3994358,31.7305411 C27.1779151,30.9544842 26.6274016,27.3260272 26.6274016,27.3260272 C26.6274016,27.3260272 29.1164497,26.3561632 29.1164497,26.3561632 C29.1164497,26.3561632 29.4990451,27.4869454 30.2642361,29.7485098 Z" id="Path-32" fill="#FDEDDC"></path>
                    <path d="M20.416233,2.90523727 C18.9362992,3.54725116 15.2608941,3.67913773 17.7393663,11.158724 C20.0009307,13.6662278 21.9356819,13.6662278 23.5436198,11.158724 C24.7164979,6.58375289 23.6740356,3.83259066 20.416233,2.90523727 Z" id="Path-30" fill="#FDEDDC"></path>
                    <path d="M15.9868924,23.1771991 C16.5524192,23.4676841 14.9436198,21.5161748 18.2650463,20.4685475 C19.0119888,19.6892554 19.0119888,18.5236352 18.2650463,16.9716869 L19.0526331,12.4657697 C15.8877701,8.53156829 16.1691696,5.40216532 19.8968316,3.07756076 C22.1343412,3.07756076 23.5473524,4.49886671 24.1358652,7.34147859 C24.1358652,10.4221499 23.3746142,12.2364198 21.8521123,12.7842882 C21.8521123,12.7842882 21.1354456,16.9716869 24.1358652,16.9716869 C24.1358652,16.9716869 22.440625,20.4685475 25.5188079,20.4685475 C25.5188079,20.4685475 22.2353299,24.2472222 27.1406395,22.3578848 C27.1406395,22.3578848 28.9211082,21.6250434 28.9211082,19.2983652 C28.9211082,19.2983652 29.9046586,17.2497685 28.1696036,15.9389902 C28.1696036,15.9389902 29.9942419,13.1768374 28.1696036,11.0573206 C27.5839675,10.3770403 25.5188079,8.50108507 25.5188079,8.50108507 C26.2846209,4.63096065 24.076867,0.0236400463 20.8051071,0.0236400463 C17.5929639,0.0236400463 15.4269965,1.61395158 14.3072049,4.79457465 C13.6965037,7.35184703 12.948939,8.95501543 12.064511,9.60407986 C11.1800829,10.2531443 11.1800829,11.2070409 12.064511,12.4657697 C8.86315104,15.133777 8.86315104,18.187283 12.064511,21.6262876 C12.064511,21.6262876 13.4574074,18.2501157 15.1632234,16.9716869 C15.712336,16.2832224 15.9868924,17.0587818 15.9868924,19.2983652 C14.4283083,20.8503135 14.4283083,22.1432581 15.9868924,23.1771991 Z" id="Path-31" fill="#8B572A"></path>
                </g>
            </g>
        </g>
    </g>
</svg>