<?xml version="1.0" encoding="UTF-8"?>
<svg width="42px" height="42px" viewBox="0 0 42 42" version="1.1" xmlns="http://www.w3.org/2000/svg" xmlns:xlink="http://www.w3.org/1999/xlink">
    <!-- Generator: Sketch 49.2 (51160) - http://www.bohemiancoding.com/sketch -->
    <title>icon_tel@2x</title>
    <desc>Created with Sketch.</desc>
    <defs></defs>
    <g id="Page-1" stroke="none" stroke-width="1" fill="none" fill-rule="evenodd">
        <g id="酒店详情" transform="translate(-660.000000, -497.000000)" fill="#F05442">
            <g id="酒店" transform="translate(0.000000, 130.000000)">
                <g id="地址" transform="translate(0.000000, 339.000000)">
                    <path d="M661.724898,31.190541 C661.429226,31.5025636 661.13905,31.8068955 660.855469,32.0903526 C658.520872,34.4261274 660.513633,45.5106205 672.497679,57.4938265 C681.143602,66.1326776 689.976381,70 694.893984,70 C696.276716,70 697.34619,69.6901747 697.910055,69.1265565 C698.193636,68.8430993 698.497001,68.5541488 698.808061,68.2586063 C700.33698,66.8072617 702.070342,65.162551 701.997798,63.425552 C701.948336,62.2280004 701.043735,60.9139897 699.310373,59.5208748 C697.064807,57.7157581 695.342437,56.8390185 694.042141,56.8390185 C692.733052,56.8390185 691.818559,57.702574 690.312721,59.2286282 L689.819203,59.7263263 C689.269627,60.2734645 688.541989,60.5613163 687.71213,60.5613163 C685.325873,60.5613163 681.864645,58.2134561 676.817343,53.1716543 C674.163992,50.5205608 672.207503,48.2375222 671.001734,46.384064 C669.183738,43.5901434 668.93533,41.5015695 670.262005,40.1754735 L670.76102,39.6821701 C673.33743,37.1442398 674.631131,35.8697813 670.467547,30.6895469 C669.034253,28.905305 667.683397,28 666.453446,28 C664.759654,28 663.1472,29.6941509 661.724898,31.190541 Z" id="icon_tel"></path>
                </g>
            </g>
        </g>
    </g>
</svg>