<?xml version="1.0" encoding="UTF-8"?>
<svg width="58px" height="57px" viewBox="0 0 58 57" version="1.1" xmlns="http://www.w3.org/2000/svg" xmlns:xlink="http://www.w3.org/1999/xlink">
    <!-- Generator: Sketch 49.2 (51160) - http://www.bohemiancoding.com/sketch -->
    <title>logo_S_gray</title>
    <desc>Created with Sketch.</desc>
    <defs>
        <polygon id="path-1" points="4.18644499e-05 0.0483 57.9808283 0.0483 57.9808283 57 4.18644499e-05 57"></polygon>
    </defs>
    <g id="Page-1" stroke="none" stroke-width="1" fill="none" fill-rule="evenodd" opacity="0.5">
        <g id="coupons" transform="translate(-76.000000, -630.000000)">
            <g id="券失效" transform="translate(36.000000, 622.000000)">
                <g id="logo_S_gray" transform="translate(40.000000, 7.000000)">
                    <g id="Group-3" transform="translate(0.000000, 0.951500)">
                        <mask id="mask-2" fill="white">
                            <use xlink:href="#path-1"></use>
                        </mask>
                        <g id="Clip-2"></g>
                        <path d="M33.7678035,21.9583 L32.9130667,21.9583 L32.9130667,46.1683 L33.7678035,46.1683 L33.7678035,46.7583 L24.1927158,46.7583 L24.1927158,46.1683 L25.0372772,46.1683 L25.0372772,21.9583 L24.1927158,21.9583 L24.1927158,21.4083 L33.7678035,21.4083 L33.7678035,21.9583 Z M30.2878035,0.0483 L30.2878035,19.3093 L33.3404351,19.3093 L33.3404351,4.3093 L32.4958737,4.3093 L32.4958737,3.7293 L36.7593825,3.7293 L36.7593825,4.3093 L35.9046456,4.3093 L35.9046456,19.3093 L38.0618386,19.3093 L38.0618386,19.8983 L37.2172772,19.8983 L37.2172772,48.4083 L38.0618386,48.4083 L38.0618386,48.9983 L33.7474526,48.9983 L33.7474526,48.4083 L34.6021895,48.4083 L34.6021895,19.8983 L23.3278035,19.8983 L23.3278035,48.4083 L24.1723649,48.4083 L24.1723649,48.9983 L19.8579789,48.9983 L19.8579789,48.4083 L20.7127158,48.4083 L20.7127158,19.8983 L19.8579789,19.8983 L19.8579789,19.3093 L22.0151719,19.3093 L22.0151719,4.3093 L21.1706105,4.3093 L21.1706105,3.7293 L25.4849965,3.7293 L25.4849965,4.3093 L24.6302596,4.3093 L24.6302596,19.3093 L27.6828912,19.3093 L27.6828912,0.0483 C11.6881193,0.7583 -0.692336842,14.0753 0.0301192982,29.7943 C0.752575439,45.5133 14.3042246,57.6803 30.2979789,56.9713 C46.2927509,56.2613 58.673207,42.9423 57.9507509,27.2253 C57.2740842,12.4993 45.2802947,0.7133 30.2979789,0.0483 L30.2878035,0.0483 Z" id="Fill-1" fill="#455055" mask="url(#mask-2)"></path>
                    </g>
                    <polygon id="Fill-4" fill="#455055" points="27.6520596 22.9098 27.6520596 47.1198 28.5067965 47.1198 30.2976737 47.1198 30.2976737 22.9098 29.4531123 22.9098"></polygon>
                </g>
            </g>
        </g>
    </g>
</svg>