<?xml version="1.0" encoding="UTF-8"?>
<svg width="750px" height="320px" viewBox="0 0 750 320" version="1.1" xmlns="http://www.w3.org/2000/svg" xmlns:xlink="http://www.w3.org/1999/xlink">
    <!-- Generator: Sketch 49.2 (51160) - http://www.bohemiancoding.com/sketch -->
    <title>pic_loading750</title>
    <desc>Created with Sketch.</desc>
    <defs>
        <polygon id="path-1" points="4.11426491e-05 0.0483 56.9811589 0.0483 56.9811589 57 4.11426491e-05 57"></polygon>
        <polygon id="path-3" points="0 57.9515 164.296 57.9515 164.296 0.9995 0 0.9995"></polygon>
    </defs>
    <g id="Page-1" stroke="none" stroke-width="1" fill="none" fill-rule="evenodd">
        <g id="订房-全日房" transform="translate(0.000000, -128.000000)">
            <g id="pic_loading750" transform="translate(0.000000, 128.000000)">
                <rect id="Rectangle-15" fill="#F0F2F6" x="0" y="0" width="750" height="320"></rect>
                <g id="logo_loading" transform="translate(293.000000, 131.000000)">
                    <g id="logo_S" transform="translate(0.000000, 0.951500)">
                        <mask id="mask-2" fill="white">
                            <use xlink:href="#path-1"></use>
                        </mask>
                        <g id="Clip-2"></g>
                        <path d="M33.1856,21.9583 L32.3456,21.9583 L32.3456,46.1683 L33.1856,46.1683 L33.1856,46.7583 L23.7756,46.7583 L23.7756,46.1683 L24.6056,46.1683 L24.6056,21.9583 L23.7756,21.9583 L23.7756,21.4083 L33.1856,21.4083 L33.1856,21.9583 Z M29.7656,0.0483 L29.7656,19.3093 L32.7656,19.3093 L32.7656,4.3093 L31.9356,4.3093 L31.9356,3.7293 L36.1256,3.7293 L36.1256,4.3093 L35.2856,4.3093 L35.2856,19.3093 L37.4056,19.3093 L37.4056,19.8983 L36.5756,19.8983 L36.5756,48.4083 L37.4056,48.4083 L37.4056,48.9983 L33.1656,48.9983 L33.1656,48.4083 L34.0056,48.4083 L34.0056,19.8983 L22.9256,19.8983 L22.9256,48.4083 L23.7556,48.4083 L23.7556,48.9983 L19.5156,48.9983 L19.5156,48.4083 L20.3556,48.4083 L20.3556,19.8983 L19.5156,19.8983 L19.5156,19.3093 L21.6356,19.3093 L21.6356,4.3093 L20.8056,4.3093 L20.8056,3.7293 L25.0456,3.7293 L25.0456,4.3093 L24.2056,4.3093 L24.2056,19.3093 L27.2056,19.3093 L27.2056,0.0483 C11.4866,0.7583 -0.6804,14.0753 0.0296,29.7943 C0.7396,45.5133 14.0576,57.6803 29.7756,56.9713 C45.4946,56.2613 57.6616,42.9423 56.9516,27.2253 C56.2866,12.4993 44.4996,0.7133 29.7756,0.0483 L29.7656,0.0483 Z" id="Fill-1" fill="#CCCCCC" mask="url(#mask-2)"></path>
                        <polygon id="Fill-4" fill="#CCCCCC" mask="url(#mask-2)" points="27.1753 21.9583 27.1753 46.1683 28.0153 46.1683 29.7753 46.1683 29.7753 21.9583 28.9453 21.9583"></polygon>
                    </g>
                    <g id="logo_SMH" transform="translate(75.000000, 10.000000)" fill="#CCCCCC">
                        <polygon id="Fill-6" points="5.416 16.7095 11.396 16.7095 11.396 15.9805 5.416 15.9805"></polygon>
                        <polygon id="Fill-8" points="6.385 36.5095 9.365 36.5095 9.365 16.1095 6.385 16.1095"></polygon>
                        <polygon id="Fill-9" points="11.396 16.7095 16.306 16.7095 16.306 15.9805 11.396 15.9805"></polygon>
                        <polygon id="Fill-10" points="5.416 36.6395 10.326 36.6395 10.326 35.9095 5.416 35.9095"></polygon>
                        <polygon id="Fill-11" points="10.326 36.6395 16.306 36.6395 16.306 35.9095 10.326 35.9095"></polygon>
                        <polygon id="Fill-12" points="12.366 36.5095 15.346 36.5095 15.346 16.1095 12.366 16.1095"></polygon>
                        <polygon id="Fill-13" points="8.405 1.3495 13.315 1.3495 13.315 0.6195 8.405 0.6195"></polygon>
                        <polygon id="Fill-14" points="9.376 14.4895 12.356 14.4895 12.356 0.7605 9.376 0.7605"></polygon>
                        <polygon id="Fill-15" points="33.545 1.0795 38.455 1.0795 38.455 0.3505 33.545 0.3505"></polygon>
                        <polygon id="Fill-16" points="34.505 4.6995 37.485 4.6995 37.485 0.4895 34.505 0.4895"></polygon>
                        <polygon id="Fill-17" points="45.775 1.0795 50.685 1.0795 50.685 0.3505 45.775 0.3505"></polygon>
                        <polygon id="Fill-18" points="46.735 4.6995 49.715 4.6995 49.715 0.4895 46.735 0.4895"></polygon>
                        <polygon id="Fill-19" points="31.876 38.5595 36.786 38.5595 36.786 37.8295 31.876 37.8295"></polygon>
                        <polygon id="Fill-20" points="40.556 21.9505 43.946 21.9505 43.946 4.6905 40.556 4.6905"></polygon>
                        <polygon id="Fill-21" points="35.9556 38.5299 32.5156 38.5299 40.3056 22.0909 43.7356 22.0909"></polygon>
                        <polygon id="Fill-22" points="68.5357 38.5601 65.2357 38.5601 72.0157 16.8791 75.3157 16.8791"></polygon>
                        <polygon id="Fill-23" points="89.2955 38.5601 85.9955 38.5601 83.3355 28.6901 86.6355 28.6901"></polygon>
                        <polygon id="Fill-24" points="67.2056 13.6402 63.9056 13.6402 71.3856 0.3502 74.6856 0.3502"></polygon>
                        <polygon id="Fill-25" points="85.9253 13.6402 89.2253 13.6402 81.7453 0.3502 78.4453 0.3502"></polygon>
                        <polygon id="Fill-26" points="47.736 38.5605 52.646 38.5605 52.646 37.8305 47.736 37.8305"></polygon>
                        <polygon id="Fill-27" points="82.635 28.8695 87.345 28.8695 87.345 28.4095 82.635 28.4095"></polygon>
                        <polygon id="Fill-28" points="48.5655 38.5299 52.0055 38.5299 44.1955 22.0909 40.7655 22.0909"></polygon>
                        <polygon id="Fill-29" points="31.876 5.4195 52.616 5.4195 52.616 4.6905 31.876 4.6905"></polygon>
                        <polygon id="Fill-30" points="71.916 0.8105 81.416 0.8105 81.416 0.3505 71.916 0.3505"></polygon>
                        <polygon id="Fill-31" points="71.916 12.9395 81.416 12.9395 81.416 12.2095 71.916 12.2095"></polygon>
                        <polygon id="Fill-32" points="63.905 17.1495 89.225 17.1495 89.225 16.4195 63.905 16.4195"></polygon>
                        <polygon id="Fill-33" points="89.2256 38.5601 63.9056 38.5601 63.9056 37.8301 88.7056 37.8301"></polygon>
                        <polygon id="Fill-34" points="31.876 11.1285 52.616 11.1285 52.616 10.3995 31.876 10.3995"></polygon>
                        <polygon id="Fill-35" points="31.876 16.8395 52.616 16.8395 52.616 16.1095 31.876 16.1095"></polygon>
                        <polygon id="Fill-36" points="31.876 22.5495 52.616 22.5495 52.616 21.8195 31.876 21.8195"></polygon>
                        <polygon id="Fill-37" points="1.976 5.1595 6.886 5.1595 6.886 4.4305 1.976 4.4305"></polygon>
                        <polygon id="Fill-38" points="2.945 14.5505 5.925 14.5505 5.925 4.5605 2.945 4.5605"></polygon>
                        <polygon id="Fill-39" points="14.835 5.1595 19.745 5.1595 19.745 4.4305 14.835 4.4305"></polygon>
                        <polygon id="Fill-40" points="15.795 14.5505 18.775 14.5505 18.775 4.5605 15.795 4.5605"></polygon>
                        <polygon id="Fill-41" points="0.496 15.1395 17.296 15.1395 17.296 14.4095 0.496 14.4095"></polygon>
                        <polygon id="Fill-42" points="0.496 38.5295 5.406 38.5295 5.406 37.8005 0.496 37.8005"></polygon>
                        <polygon id="Fill-43" points="1.456 38.3905 4.436 38.3905 4.436 14.5505 1.456 14.5505"></polygon>
                        <polygon id="Fill-44" points="16.326 15.1395 21.236 15.1395 21.236 14.4095 16.326 14.4095"></polygon>
                        <polygon id="Fill-45" points="16.326 38.5295 21.236 38.5295 21.236 37.8005 16.326 37.8005"></polygon>
                        <polygon id="Fill-46" points="17.286 38.3905 20.266 38.3905 20.266 14.5505 17.286 14.5505"></polygon>
                    </g>
                    <mask id="mask-4" fill="white">
                        <use xlink:href="#path-3"></use>
                    </mask>
                    <g id="Clip-7"></g>
                </g>
            </g>
        </g>
    </g>
</svg>